<!-- aha agile logo (primary) - Archivo Black outlined to paths + Pair sparkle; no font needed -->
<svg xmlns="http://www.w3.org/2000/svg" viewBox="0 0 1035 300" width="1035" height="300" role="img" aria-label="aha agile">
  <path transform="translate(6.00,210.00) scale(0.20000,-0.20000)" d="M216 -12Q175 -12 141.0 -4.5Q107 3 82.0 20.5Q57 38 43.5 66.5Q30 95 30 136Q30 195 54.5 232.0Q79 269 126.0 289.0Q173 309 240.5 316.5Q308 324 395 324V350Q395 372 384.5 385.5Q374 399 357.0 406.0Q340 413 318 413Q301 413 283.0 409.0Q265 405 253.5 395.0Q242 385 242 367V363H46Q45 367 45.0 370.0Q45 373 45 377Q45 426 76.5 462.5Q108 499 169.5 519.5Q231 540 321 540Q394 540 456.0 524.0Q518 508 556.0 470.5Q594 433 594 368V162Q594 146 602.0 134.5Q610 123 626 123H662V8Q650 1 622.5 -5.5Q595 -12 558 -12Q518 -12 488.0 -4.0Q458 4 439.5 19.0Q421 34 414 54H407Q386 35 358.5 20.0Q331 5 296.0 -3.5Q261 -12 216 -12ZM297 112Q316 112 333.5 117.5Q351 123 365.0 132.5Q379 142 387.0 155.5Q395 169 395 185V230Q336 230 299.5 221.0Q263 212 246.0 197.0Q229 182 229 162Q229 142 239.0 131.0Q249 120 264.5 116.0Q280 112 297 112Z" fill="#1A1916"/>
  <path transform="translate(133.40,210.00) scale(0.20000,-0.20000)" d="M60 0V725H259V473H266Q283 495 309.0 509.5Q335 524 365.0 532.0Q395 540 424 540Q487 540 527.5 516.5Q568 493 588.0 449.0Q608 405 608 342V0H409V318Q409 335 404.5 348.5Q400 362 392.0 372.0Q384 382 371.5 387.5Q359 393 342 393Q317 393 298.5 381.5Q280 370 269.5 351.5Q259 333 259 310V0Z" fill="#1A1916"/>
  <path transform="translate(260.80,210.00) scale(0.20000,-0.20000)" d="M216 -12Q175 -12 141.0 -4.5Q107 3 82.0 20.5Q57 38 43.5 66.5Q30 95 30 136Q30 195 54.5 232.0Q79 269 126.0 289.0Q173 309 240.5 316.5Q308 324 395 324V350Q395 372 384.5 385.5Q374 399 357.0 406.0Q340 413 318 413Q301 413 283.0 409.0Q265 405 253.5 395.0Q242 385 242 367V363H46Q45 367 45.0 370.0Q45 373 45 377Q45 426 76.5 462.5Q108 499 169.5 519.5Q231 540 321 540Q394 540 456.0 524.0Q518 508 556.0 470.5Q594 433 594 368V162Q594 146 602.0 134.5Q610 123 626 123H662V8Q650 1 622.5 -5.5Q595 -12 558 -12Q518 -12 488.0 -4.0Q458 4 439.5 19.0Q421 34 414 54H407Q386 35 358.5 20.0Q331 5 296.0 -3.5Q261 -12 216 -12ZM297 112Q316 112 333.5 117.5Q351 123 365.0 132.5Q379 142 387.0 155.5Q395 169 395 185V230Q336 230 299.5 221.0Q263 212 246.0 197.0Q229 182 229 162Q229 142 239.0 131.0Q249 120 264.5 116.0Q280 112 297 112Z" fill="#1A1916"/>
  <g transform="translate(400.94,79.70) scale(1.48000)" fill="#E0531E"><path transform="translate(3,19) scale(0.74)" d="M50 3C53 34 66 47 97 50C66 53 53 66 50 97C47 66 34 53 3 50C34 47 47 34 50 3Z"/><path transform="translate(61,13) scale(0.30)" d="M50 3C53 34 66 47 97 50C66 53 53 66 50 97C47 66 34 53 3 50C34 47 47 34 50 3Z"/></g>
  <path transform="translate(530.92,210.00) scale(0.20000,-0.20000)" d="M216 -12Q175 -12 141.0 -4.5Q107 3 82.0 20.5Q57 38 43.5 66.5Q30 95 30 136Q30 195 54.5 232.0Q79 269 126.0 289.0Q173 309 240.5 316.5Q308 324 395 324V350Q395 372 384.5 385.5Q374 399 357.0 406.0Q340 413 318 413Q301 413 283.0 409.0Q265 405 253.5 395.0Q242 385 242 367V363H46Q45 367 45.0 370.0Q45 373 45 377Q45 426 76.5 462.5Q108 499 169.5 519.5Q231 540 321 540Q394 540 456.0 524.0Q518 508 556.0 470.5Q594 433 594 368V162Q594 146 602.0 134.5Q610 123 626 123H662V8Q650 1 622.5 -5.5Q595 -12 558 -12Q518 -12 488.0 -4.0Q458 4 439.5 19.0Q421 34 414 54H407Q386 35 358.5 20.0Q331 5 296.0 -3.5Q261 -12 216 -12ZM297 112Q316 112 333.5 117.5Q351 123 365.0 132.5Q379 142 387.0 155.5Q395 169 395 185V230Q336 230 299.5 221.0Q263 212 246.0 197.0Q229 182 229 162Q229 142 239.0 131.0Q249 120 264.5 116.0Q280 112 297 112Z" fill="#1A1916"/>
  <path transform="translate(658.32,210.00) scale(0.20000,-0.20000)" d="M143 -210Q107 -210 76.5 -193.0Q46 -176 28.0 -146.5Q10 -117 10 -81Q10 -40 35.5 -9.0Q61 22 94 37Q70 54 56.0 78.0Q42 102 42 130Q42 170 71.5 201.5Q101 233 143 243Q107 266 82.5 298.5Q58 331 58 369Q58 435 95.0 472.0Q132 509 194.0 524.5Q256 540 330 540Q360 540 380.5 538.5Q401 537 417 534Q461 561 478.0 587.0Q495 613 495 627H659Q659 584 644.5 556.0Q630 528 602.5 511.0Q575 494 537 484Q566 462 582.5 432.5Q599 403 599 370Q599 311 568.0 273.5Q537 236 486.5 218.0Q436 200 377 200H301Q267 200 252.5 192.0Q238 184 238 171Q238 158 250.5 149.0Q263 140 301 140H481Q573 140 616.0 92.5Q659 45 659 -29Q659 -85 628.0 -125.5Q597 -166 546.5 -188.0Q496 -210 437 -210ZM251 -99H407Q422 -99 434.0 -93.0Q446 -87 453.0 -75.5Q460 -64 460 -49Q460 -26 444.5 -13.0Q429 0 407 0H251Q229 0 214.0 -12.5Q199 -25 199 -48Q199 -71 214.0 -85.0Q229 -99 251 -99ZM328 304Q363 304 384.0 320.0Q405 336 405 370Q405 404 384.0 420.0Q363 436 328 436Q297 436 275.0 420.0Q253 404 253 370Q253 348 262.0 333.0Q271 318 288.0 311.0Q305 304 328 304Z" fill="#1A1916"/>
  <path transform="translate(785.52,210.00) scale(0.20000,-0.20000)" d="M60 590V725H259V590ZM60 0V528H259V0Z" fill="#1A1916"/>
  <path transform="translate(843.32,210.00) scale(0.20000,-0.20000)" d="M60 0V725H259V0Z" fill="#1A1916"/>
  <path transform="translate(901.12,210.00) scale(0.20000,-0.20000)" d="M345 -12Q250 -12 180.5 17.5Q111 47 73.5 108.0Q36 169 36 264Q36 357 73.0 418.0Q110 479 176.5 509.5Q243 540 333 540Q428 540 494.5 510.5Q561 481 596.0 420.0Q631 359 631 264V230H235Q235 194 245.5 168.0Q256 142 279.5 128.5Q303 115 341 115Q368 115 386.5 121.0Q405 127 416.5 137.5Q428 148 433.0 162.0Q438 176 438 192H631Q631 145 613.0 107.0Q595 69 559.0 42.5Q523 16 469.5 2.0Q416 -12 345 -12ZM236 324H430Q430 345 424.0 361.5Q418 378 406.5 389.5Q395 401 378.5 407.0Q362 413 341 413Q308 413 286.0 402.0Q264 391 252.0 371.5Q240 352 236 324Z" fill="#1A1916"/>
</svg>
